FILE "Road Blaster FX (1993)(Data East - Wolf Team)(JP).img" BINARY
  TRACK 01 MODE1/2352
    INDEX 01 00:00:00
  TRACK 02 AUDIO
    PREGAP 00:02:00
    INDEX 01 30:01:47
  TRACK 03 AUDIO
    INDEX 00 30:14:56
    INDEX 01 30:16:55
  TRACK 04 AUDIO
    INDEX 00 30:26:34
    INDEX 01 30:28:33
